<?xml version="1.0" encoding="utf-8"?>
<!-- Generator: Adobe Illustrator 16.0.0, SVG Export Plug-In . SVG Version: 6.00 Build 0)  -->
<!DOCTYPE svg PUBLIC "-//W3C//DTD SVG 1.1//EN" "http://www.w3.org/Graphics/SVG/1.1/DTD/svg11.dtd">
<svg version="1.1" id="Layer_1" xmlns="http://www.w3.org/2000/svg" xmlns:xlink="http://www.w3.org/1999/xlink" x="0px" y="0px"
	 width="175.349px" height="167.907px" viewBox="0 0 175.349 167.907" enable-background="new 0 0 175.349 167.907"
	 xml:space="preserve">
<circle fill="#011F4B" cx="88" cy="84" r="75"/>
<g>
	<path fill="#FEFDFF" d="M124.811,92.485h2.57v8.447h-2.57V92.485z M127.381,58.701h-2.57v8.446h2.57V58.701z M127.381,109.377
		h-2.57v2.571h-2.571v2.571h5.142V109.377z M127.381,75.593h-2.57v8.447h2.57V75.593z M124.811,50.254h2.57v-5.142h-5.142v2.571
		h2.571V50.254z M105.353,114.52h8.446v-2.571h-8.446V114.52z M60.545,47.683h2.571v-2.571h-5.142v5.142h2.57V47.683z
		 M113.793,45.112h-8.445v2.571h8.445V45.112z M60.545,58.701h-2.57v8.446h2.57V58.701z M48.619,119.482
		c0-1.874,1.519-3.392,3.393-3.392c1.09,0,2.059,0.513,2.68,1.312c0.266-0.157,0.551-0.732,0.734-1.091
		c0.716-1.343,1.373-2.546,2.21-3.666c-1.574-2.306-3.478-5.002-5.23-7.495c-0.969-1.376-1.845-3.445-0.647-5.18
		c0.091,0,0.182,0,0.27,0c2.467,3.361,4.885,6.77,7.4,10.081c2.513-3.312,4.932-6.72,7.399-10.081c0.089,0,0.18,0,0.268,0
		c1.202,1.734,0.321,3.804-0.645,5.18c-1.757,2.493-3.656,5.192-5.227,7.495c0.836,1.122,1.491,2.322,2.207,3.666
		c0.19,0.358,0.474,0.929,0.737,1.091c0.62-0.8,1.59-1.312,2.68-1.312c1.874,0,3.393,1.517,3.393,3.392
		c0,1.633-1.159,2.997-2.697,3.318c-0.111,0.037-0.221,0.065-0.338,0.087c-0.289,0-0.578,0-0.864,0
		c-0.823-0.155-1.829-0.672-2.316-1.45c-0.366-0.578-0.594-1.348-0.864-2.048c-0.789-2.039-1.952-3.773-3.732-4.8
		c-1.784,1.029-2.948,2.763-3.734,4.8c-0.272,0.699-0.504,1.47-0.863,2.048c-0.49,0.781-1.497,1.301-2.32,1.45
		c-0.285,0-0.574,0-0.864,0c-0.115-0.022-0.226-0.055-0.333-0.087C49.777,122.479,48.619,121.115,48.619,119.482z M64.998,119.482
		c0,1.021,0.832,1.854,1.854,1.854c1.023,0,1.856-0.831,1.856-1.854s-0.828-1.856-1.856-1.856S64.998,118.455,64.998,119.482z
		 M50.153,119.482c0,1.021,0.831,1.854,1.858,1.854c1.023,0,1.855-0.831,1.855-1.854s-0.831-1.856-1.855-1.856
		C50.989,117.626,50.153,118.455,50.153,119.482z M60.545,92.485h-2.57v8.447h2.57V92.485z M60.545,75.593h-2.57v8.447h2.57V75.593z
		 M71.564,114.52h8.447v-2.571h-8.447V114.52z M80.012,45.112h-8.447v2.571h8.447V45.112z M91.516,93.994V80.357
		c-3.618-0.687-6.291-1.828-8.019-3.43c-1.729-1.601-2.591-3.82-2.591-6.657c0-2.534,0.931-4.817,2.789-6.854
		c1.859-2.036,4.465-3.067,7.818-3.103v-3.325h2.383v3.275c3.318,0.233,5.861,1.211,7.64,2.934c1.777,1.723,2.706,4,2.791,6.824
		h-4.378c-0.117-1.267-0.46-2.359-1.024-3.276c-1.05-1.684-2.729-2.566-5.026-2.651v12.183c3.867,1.087,6.489,2.103,7.875,3.053
		c2.253,1.568,3.377,3.891,3.377,6.961c0,4.438-1.443,7.584-4.332,9.454c-1.599,1.039-3.909,1.722-6.925,2.056v4.853h-2.376v-4.853
		c-4.854-0.315-8.146-2.035-9.885-5.153c-0.953-1.685-1.424-3.963-1.424-6.831h4.426c0.135,2.286,0.495,3.951,1.084,5.003
		C86.764,92.699,88.694,93.754,91.516,93.994z M93.896,94.115c2.848-0.135,4.819-1.175,5.898-3.13
		c0.57-1.002,0.854-2.159,0.854-3.482c0-2.084-0.769-3.667-2.303-4.75c-0.882-0.636-2.367-1.233-4.449-1.804V94.115L93.896,94.115z
		 M91.516,75.8V64.042c-2.2,0.086-3.772,0.75-4.704,2.002c-0.935,1.25-1.4,2.557-1.4,3.924c0,1.653,0.55,2.946,1.655,3.879
		C88.166,74.782,89.65,75.435,91.516,75.8z M96.903,45.112h-8.444v2.571h8.444V45.112z M96.903,111.949h-8.444v2.571h8.444V111.949z
		"/>
</g>
</svg>
