<?xml version="1.0" encoding="utf-8"?>
<!-- Generator: Adobe Illustrator 16.0.0, SVG Export Plug-In . SVG Version: 6.00 Build 0)  -->
<!DOCTYPE svg PUBLIC "-//W3C//DTD SVG 1.1//EN" "http://www.w3.org/Graphics/SVG/1.1/DTD/svg11.dtd">
<svg version="1.1" id="Layer_1" xmlns="http://www.w3.org/2000/svg" xmlns:xlink="http://www.w3.org/1999/xlink" x="0px" y="0px"
	 width="175.349px" height="167.907px" viewBox="0 0 175.349 167.907" enable-background="new 0 0 175.349 167.907"
	 xml:space="preserve">
<circle fill="#011F4B" cx="88.256" cy="87.163" r="75"/>
<g>
	<path fill="#FFFFFF" d="M147.518,87.237l-0.961-0.774c-0.126-0.101-0.267-0.181-0.418-0.234L94.88,67.723
		c-0.75-0.27-1.575,0.117-1.847,0.867c-0.273,0.749,0.117,1.577,0.867,1.848l51.032,18.421l0.771,0.622
		c0.983,0.793,1.546,1.972,1.546,3.231c0,2.287-1.862,4.148-4.15,4.148H33.416c-2.288,0-4.149-1.862-4.149-4.148
		c0-1.382,0.675-2.654,1.813-3.43l57.72-23.375c0.543-0.222,0.901-0.752,0.901-1.338v-7.216c0-0.797-0.646-1.443-1.443-1.443
		c-4.377,0-7.938-3.56-7.938-7.938s3.561-7.937,7.938-7.937c4.376,0,7.936,3.56,7.936,7.937c0,0.797,0.648,1.443,1.445,1.443
		c0.796,0,1.442-0.646,1.442-1.443c0-5.969-4.854-10.824-10.824-10.824s-10.825,4.855-10.825,10.824
		c0,5.478,4.092,10.02,9.382,10.729V63.6L29.862,86.664c-0.082,0.032-0.161,0.073-0.236,0.121c-2.033,1.3-3.247,3.517-3.247,5.929
		c0,3.879,3.156,7.035,7.035,7.035h109.684c3.879,0,7.035-3.156,7.035-7.035C150.135,90.579,149.181,88.583,147.518,87.237z"/>
</g>
</svg>
