<?xml version="1.0" encoding="utf-8"?>
<!-- Generator: Adobe Illustrator 16.0.0, SVG Export Plug-In . SVG Version: 6.00 Build 0)  -->
<!DOCTYPE svg PUBLIC "-//W3C//DTD SVG 1.1//EN" "http://www.w3.org/Graphics/SVG/1.1/DTD/svg11.dtd">
<svg version="1.1" id="logo" xmlns="http://www.w3.org/2000/svg" xmlns:xlink="http://www.w3.org/1999/xlink" x="0px" y="0px"
	 width="736.667px" height="156.667px" viewBox="0 0 736.667 156.667" enable-background="new 0 0 736.667 156.667"
	 xml:space="preserve">
<g>
	<path fill-rule="evenodd" clip-rule="evenodd" fill="#FFFFFF" d="M4.167,90.423c3.984-10.394,9.799-19.89,14.612-29.877
		c0.684-1.421,1.349-2.863,1.848-4.352c0.512-1.529-0.06-2.436-1.629-2.907c-0.61-0.185-1.25-0.284-1.881-0.388
		c-0.581-0.096-1.168-0.148-1.978-0.607c0.521-0.342,1.038-0.974,1.56-0.979c8.401-0.062,16.801-0.044,25.288-0.044
		c-0.118,1.004-0.49,1.486-1.557,1.513c-3.719,0.092-6.535,1.835-8.311,5.069c-2.254,4.109-4.407,8.274-6.551,12.441
		c-2.663,5.178-5.307,10.364-7.883,15.585c-0.716,1.451-1.173,3.033-1.731,4.558c-1.609,4.389,1.167,8.109,5.779,8.592
		c6.682,0.698,12.29-1.511,16.218-6.922c2.796-3.851,5.118-8.077,7.375-12.286c3.427-6.389,6.63-12.904,9.894-19.383
		c0.528-1.051,0.985-2.163,1.282-3.298c0.597-2.283-0.389-3.73-2.723-4.146c-0.913-0.163-1.844-0.227-2.766-0.333
		c-0.071-0.129-0.142-0.257-0.211-0.384c0.538-0.319,1.075-0.907,1.619-0.914c5.436-0.065,10.873-0.039,16.311-0.032
		c0.135,0,0.271,0.063,0.887,0.218c-0.688,0.554-1.108,1.185-1.596,1.242c-4.701,0.549-7.463,3.546-9.481,7.436
		c-3.635,7.009-7.107,14.105-10.836,21.061c-2.14,3.992-4.39,7.974-7.057,11.618c-5.43,7.423-13.069,10.542-22.15,10.298
		c-1.571-0.042-3.165-0.193-4.699-0.521c-4.618-0.99-8.513-2.916-9.629-8.102C4.167,93.192,4.167,91.809,4.167,90.423z"/>
	<path fill-rule="evenodd" clip-rule="evenodd" fill="#FFFFFF" d="M732.11,68.77c-1.071,2.79-2.146,5.578-3.21,8.369
		c-0.229,0.599-0.471,1.198-0.634,1.816c-0.23,0.88-0.71,1.254-1.793,0.9c0-0.996,0.071-2.071-0.01-3.134
		c-0.285-3.764-3.258-6.612-6.636-6.416c-3.803,0.22-5.747,3.807-3.72,7.011c1.345,2.127,2.919,4.108,4.318,6.198
		c4.618,6.903,2.636,14.5-4.722,18.464c-4.133,2.228-8.408,2.662-12.896,1.365c-0.853-0.246-1.738-0.641-2.583-0.588
		c-1.114,0.069-2.214,0.491-3.309,0.801c-0.605,0.173-1.187,0.432-2.183,0.801c1.062-2.914,1.947-5.356,2.834-7.799
		c0.489-1.346,0.922-2.713,1.499-4.017c0.209-0.477,0.764-0.795,1.406-1.428c0.444,2.418,0.657,4.333,1.162,6.169
		c1.045,3.791,5.03,5.863,8.467,4.531c3.273-1.27,4.683-4.694,3.131-7.903c-0.66-1.369-1.563-2.627-2.405-3.902
		c-1.059-1.607-2.244-3.135-3.246-4.775c-3.417-5.59-1.862-11.614,3.831-14.934c4.046-2.354,8.376-2.322,12.792-1.414
		c0.967,0.2,1.933,0.551,2.897,0.554c0.938,0.002,1.873-0.359,2.813-0.549c0.729-0.149,1.463-0.28,2.194-0.418
		C732.11,68.571,732.11,68.67,732.11,68.77z"/>
	<path fill-rule="evenodd" clip-rule="evenodd" fill="#FFFFFF" d="M570.147,4.103c4.473,6.433,8.955,12.863,13.417,19.305
		c5.79,8.361,11.566,16.733,17.345,25.101c0.336,0.487,0.694,0.965,0.982,1.48c0.541,0.96,0.374,1.858-0.523,2.475
		c-0.896,0.611-1.826,0.455-2.509-0.388c-0.651-0.802-1.199-1.689-1.787-2.543c-9.591-13.897-19.183-27.794-28.771-41.692
		c-1.219-1.766-1.206-2.148,0.063-3.737C568.96,4.103,569.553,4.103,570.147,4.103z"/>
	<path fill-rule="evenodd" clip-rule="evenodd" fill="#FFFFFF" d="M606.337,151.826c-7.981-10.239-15.961-20.479-23.938-30.719
		c-2.065-2.65-4.133-5.296-6.184-7.955c-0.999-1.293-1.012-2.395-0.071-3.118c0.934-0.719,2.026-0.446,3.017,0.826
		c9.769,12.548,19.53,25.099,29.286,37.653c1.025,1.319,0.929,2.062-0.331,3.313C607.522,151.826,606.929,151.826,606.337,151.826z"
		/>
	<path fill-rule="evenodd" clip-rule="evenodd" fill="#FFFFFF" d="M151.974,72.925c0.73-1.374,1.265-2.469,1.89-3.503
		c0.223-0.37,0.664-0.848,1.016-0.857c2.75-0.069,5.502-0.039,8.543-0.039c-1.337,2.623-2.554,5.028-3.785,7.423
		c-5.771,11.237-11.552,22.472-17.309,33.716c-0.561,1.093-1.043,2.237-1.443,3.401c-0.737,2.145-0.19,3.141,1.972,3.759
		c0.611,0.177,1.241,0.289,2.079,0.81c-0.527,0.324-1.05,0.928-1.581,0.933c-6.325,0.062-12.652,0.038-18.98,0.032
		c-0.184,0-0.366-0.042-0.773-0.42c0.509-0.381,0.978-1.008,1.535-1.102c2.894-0.487,4.814-2.195,6.125-4.669
		c2.657-5.016,5.258-10.061,7.876-15.095c0.771-1.48,1.526-2.972,2.288-4.458c0.133,0.142,0.266,0.282,0.398,0.425
		c-1.742,1.46-3.436,2.986-5.241,4.366c-2.144,1.639-4.268,3.364-6.618,4.655c-2.26,1.243-4.913,1.706-7.15-0.048
		c-2.22-1.738-2.312-4.374-1.955-6.94c0.654-4.708,2.766-8.825,5.451-12.665c4.174-5.969,9.328-10.874,15.956-14.018
		c1.462-0.694,3.215-0.969,4.854-1.052c2.934-0.147,4.328,1.199,4.73,4.138C151.889,71.995,151.908,72.275,151.974,72.925z
		 M150.1,74.346c0.039-3.879-2-5.216-4.482-3.778c-1.255,0.728-2.438,1.713-3.385,2.814c-4.221,4.901-7.395,10.456-9.792,16.448
		c-0.47,1.174-0.795,2.451-0.934,3.711c-0.25,2.288,1.142,3.305,3.198,2.316c1.134-0.545,2.198-1.339,3.122-2.203
		c4.406-4.127,7.816-9.016,10.497-14.39C149.233,77.438,149.726,75.405,150.1,74.346z"/>
	<path fill-rule="evenodd" clip-rule="evenodd" fill="#FFFFFF" d="M306.841,91.332c-5.416,5.919-11.348,10.996-19.77,11.995
		c-4.06,0.48-8.087,0.466-12.009-0.878c-6.464-2.225-10.346-8.281-9.762-15.105c0.738-8.607,4.572-15.784,10.384-21.927
		c7.653-8.093,17.113-12.913,28.108-14.643c4.013-0.63,7.991-0.225,11.847,1.066c2.643,0.884,5.107,0.988,7.384-0.962
		c0.381-0.326,1.065-0.301,1.967-0.526c-1.28,2.855-2.397,5.358-3.526,7.859c-1.117,2.473-2.295,4.921-3.346,7.422
		c-0.411,0.976-0.95,1.277-1.831,0.979c0-1.738,0.117-3.454-0.022-5.151c-0.397-4.754-3.298-7.519-8.076-7.793
		c-3.051-0.177-5.855,0.719-8.528,2.084c-5.984,3.059-10.33,7.856-14.027,13.329c-3.682,5.446-6.577,11.24-7.8,17.766
		c-0.154,0.824-0.263,1.66-0.306,2.498c-0.34,6.598,3.887,10.383,10.814,9.916c6.253-0.42,11.222-3.424,15.83-7.338
		c0.664-0.563,1.619-0.781,2.438-1.16C306.689,90.951,306.765,91.143,306.841,91.332z"/>
	<path fill-rule="evenodd" clip-rule="evenodd" fill="#FFFFFF" d="M198.926,94.01c-2.46,3.13-5.052,5.888-8.418,7.81
		c-2.028,1.157-4.192,1.739-6.536,1.442c-2.556-0.326-3.898-2.062-3.041-4.479c1.017-2.866,2.442-5.588,3.699-8.37
		c0.237-0.528,0.51-1.04,0.985-1.294c-1.776,1.578-3.526,3.187-5.333,4.728c-2.924,2.496-5.756,5.129-8.886,7.34
		c-1.579,1.116-3.676,1.711-5.624,2.037c-3.287,0.547-5.338-1.727-4.657-5.013c0.315-1.523,0.958-3.009,1.65-4.414
		c2.92-5.936,5.919-11.829,8.873-17.748c0.396-0.792,0.738-1.619,1.018-2.457c0.445-1.333,0.079-1.92-1.311-2.2
		c-0.621-0.125-1.255-0.188-2.267-0.333c0.599-0.599,0.958-1.284,1.416-1.358c4.773-0.762,9.561-1.428,14.345-2.111
		c0.288-0.041,0.586-0.007,1.149-0.007c-0.795,1.6-1.499,3.042-2.225,4.473c-3.644,7.173-7.308,14.336-10.913,21.526
		c-0.359,0.716-0.363,1.607-0.533,2.416c0.878-0.168,1.878-0.12,2.616-0.537c3.625-2.044,6.288-5.204,9.18-8.107
		c4.72-4.738,7.815-10.507,10.657-16.441c0.656-1.369,1.365-2.173,3.051-2.074c2.547,0.146,5.107,0.037,7.826,0.037
		c-1.115,2.195-2.238,4.416-3.373,6.634c-3.373,6.589-6.765,13.169-10.102,19.778c-0.355,0.703-1.375,1.614-0.332,2.29
		c0.389,0.253,1.625-0.393,2.202-0.923c1.263-1.16,2.352-2.512,3.578-3.856C198.232,93.364,198.567,93.677,198.926,94.01z"/>
	<path fill-rule="evenodd" clip-rule="evenodd" fill="#FFFFFF" d="M52.659,102.139c2.347-4.575,4.552-8.869,6.751-13.164
		c2.157-4.217,4.31-8.438,6.46-12.659c0.157-0.307,0.296-0.622,0.433-0.941c1.511-3.473,1.274-3.902-2.432-4.376
		c-0.017-1.027,0.544-1.453,1.506-1.603c4.096-0.64,8.187-1.327,12.286-1.95c0.758-0.115,1.551-0.018,2.646-0.018
		c-2.539,4.988-4.958,9.738-7.376,14.487c0.082,0.064,0.161,0.128,0.243,0.191c1.554-1.646,3.085-3.312,4.668-4.928
		c3.294-3.362,6.724-6.585,11.059-8.575c1.36-0.624,2.912-1,4.405-1.121c2.862-0.234,4.747,1.892,4.152,4.706
		c-0.362,1.715-1,3.419-1.792,4.988c-2.782,5.507-5.688,10.948-8.536,16.421c-0.409,0.786-0.794,1.592-1.1,2.423
		c-0.117,0.317-0.09,0.973,0.068,1.045c0.331,0.154,0.922,0.183,1.181-0.021c1.158-0.912,2.254-1.91,3.339-2.912
		c0.54-0.498,1.004-1.081,1.558-1.681c0.454,0.287,0.855,0.54,1.408,0.893c-3.192,3.75-6.427,7.259-11.184,8.798
		c-1.143,0.37-2.437,0.457-3.649,0.398c-2.718-0.127-4.076-2.108-3.277-4.717c0.375-1.22,0.901-2.405,1.481-3.546
		c2.799-5.498,5.64-10.973,8.467-16.457c0.089-0.175,0.234-0.338,0.272-0.522c0.183-0.866,0.336-1.736,0.5-2.605
		c-0.957,0.168-2.069,0.08-2.845,0.547c-3.807,2.301-6.701,5.632-9.725,8.83c-4.563,4.825-7.431,10.66-10.198,16.567
		c-0.534,1.137-1.166,1.594-2.458,1.537C58.317,102.061,55.653,102.139,52.659,102.139z"/>
	<path fill-rule="evenodd" clip-rule="evenodd" fill="#FFFFFF" d="M343.336,72.992c0.682-1.314,1.167-2.384,1.787-3.367
		c0.241-0.386,0.774-0.788,1.201-0.82c2.749-0.209,5.508-0.319,8.553-0.475c-1.153,2.253-2.219,4.322-3.277,6.396
		c-3.537,6.941-7.09,13.878-10.579,20.844c-0.335,0.667-0.271,1.532-0.392,2.306c0.801-0.188,1.744-0.17,2.367-0.607
		c1.201-0.843,2.278-1.89,3.294-2.955c0.696-0.726,1.236-0.884,2.02,0.067c-3.923,4.644-7.916,9.136-14.729,9.134
		c-3.043,0-4.37-1.838-3.313-4.694c0.646-1.75,1.565-3.401,2.361-5.098c0.157-0.335,0.307-0.671,0.412-0.903
		c-2.551,2.441-5.077,4.999-7.762,7.379c-2.088,1.849-4.46,3.279-7.408,3.325c-3.153,0.048-4.739-1.307-5.216-4.44
		c-0.447-2.932,0.128-5.733,1.289-8.382c3.61-8.238,8.945-15.082,16.599-19.964c2.298-1.467,4.72-2.707,7.518-2.896
		c3.538-0.243,4.723,0.769,5.138,4.316C343.217,72.33,343.254,72.5,343.336,72.992z M341.558,73.215
		c-0.493-1.013-0.715-2.343-1.402-2.659c-0.795-0.365-2.083-0.026-3.002,0.365c-0.864,0.37-1.605,1.141-2.268,1.858
		c-4.227,4.57-7.503,9.777-10,15.454c-0.787,1.789-1.304,3.725-1.697,5.645c-0.449,2.188,0.947,3.261,2.953,2.354
		c0.883-0.4,1.721-0.983,2.445-1.633c4.497-4.045,8.033-8.837,10.562-14.313C340.167,78.078,340.739,75.664,341.558,73.215z"/>
	<path fill-rule="evenodd" clip-rule="evenodd" fill="#FFFFFF" d="M661.272,93.385c0.237,0.241,0.543,0.546,0.921,0.925
		c-6.51,6.125-13.451,10.562-22.791,9.565c-6.04-0.65-7.616-4.91-6.795-9.467c1.008-5.58,3.979-10.171,7.74-14.252
		c5.467-5.932,12.102-9.967,20.083-11.473c2.096-0.395,4.334-0.419,6.454-0.171c2.694,0.313,3.917,2.416,3.339,5.076
		c-0.804,3.699-3.259,6.271-6.043,8.532c-4.864,3.946-10.571,5.856-16.729,6.515c-3.113,0.333-3.128,0.285-3.936,3.329
		c-0.177,0.666-0.336,1.35-0.381,2.031c-0.193,2.985,1.545,4.896,4.533,5.029c2.693,0.119,5.188-0.646,7.506-1.922
		C657.198,95.989,659.126,94.705,661.272,93.385z M645.332,86.801c7.315-0.666,14.178-6.414,16.037-13.217
		c0.065-0.237,0.128-0.479,0.158-0.719c0.172-1.509-0.607-2.372-2.074-1.991c-1.11,0.289-2.235,0.843-3.139,1.552
		C651.464,76.218,648.292,81.31,645.332,86.801z"/>
	<path fill-rule="evenodd" clip-rule="evenodd" fill="#FFFFFF" d="M412.184,93.038c0.286,0.303,0.571,0.603,0.935,0.987
		c-6.53,6.302-13.715,10.672-23.179,9.418c-4.979-0.659-7.402-4.455-6.248-9.756c1.172-5.363,3.984-9.861,7.658-13.827
		c5.921-6.389,13.075-10.611,21.809-11.802c1.588-0.216,3.273-0.172,4.852,0.099c2.588,0.446,3.715,2.269,3.283,4.883
		c-0.418,2.54-1.832,4.549-3.545,6.373c-4.74,5.052-10.757,7.53-17.449,8.639c-0.682,0.113-1.367,0.212-2.053,0.285
		c-3.357,0.359-2.517-0.294-3.605,2.956c-0.154,0.466-0.268,0.951-0.354,1.437c-0.652,3.695,1.244,5.969,4.998,5.943
		c3.109-0.021,5.875-1.174,8.473-2.765C409.229,95.009,410.653,94.033,412.184,93.038z M396.35,86.502
		c7.895-0.847,12.479-5.464,15.566-11.91c0.554-1.155,1.526-2.69,0.077-3.785c-1.367-1.029-2.771-0.067-3.923,0.758
		C402.789,75.352,399.495,80.699,396.35,86.502z"/>
	<path fill-rule="evenodd" clip-rule="evenodd" fill="#FFFFFF" d="M233.885,92.744c0.213,0.248,0.492,0.574,0.849,0.99
		c-6.479,6.095-13.424,10.603-22.75,9.504c-5.229-0.616-7.846-4.095-6.85-9.302c1.084-5.67,4.03-10.369,7.9-14.5
		c5.99-6.391,13.217-10.583,22.025-11.674c1.494-0.184,3.07-0.113,4.557,0.146c2.55,0.444,3.78,2.533,3.21,5.078
		c-0.655,2.919-2.405,5.154-4.511,7.158c-5.124,4.871-11.403,7.101-18.281,7.887c-3.132,0.358-3.142,0.291-3.933,3.325
		c-0.112,0.431-0.208,0.865-0.294,1.3c-0.653,3.303,1.201,5.659,4.587,5.767c2.687,0.087,5.178-0.701,7.488-1.996
		C229.855,95.321,231.744,94.065,233.885,92.744z M217.931,86.176c4.563-0.375,8.149-2.065,11.037-5.183
		c2.164-2.336,4.088-4.855,4.934-7.979c0.201-0.746,0.109-1.986-0.364-2.382c-0.504-0.423-1.713-0.363-2.446-0.078
		c-1.076,0.42-2.089,1.123-2.979,1.881C223.718,76.184,220.705,80.972,217.931,86.176z"/>
	<path fill-rule="evenodd" clip-rule="evenodd" fill="#FFFFFF" d="M665.549,103.029c3.509-7.476,6.885-14.662,10.254-21.854
		c0.838-1.786,1.704-3.564,2.462-5.385c1.147-2.754,0.666-3.551-2.218-3.915c-0.183-0.023-0.363-0.074-0.542-0.112
		c-0.177-0.204-0.353-0.409-0.529-0.616c0.438-0.177,0.86-0.432,1.317-0.522c4.111-0.816,8.228-1.614,12.348-2.388
		c0.507-0.094,1.045-0.011,1.853-0.011c-3.045,6.229-5.973,12.215-8.898,18.2c0.099,0.057,0.198,0.115,0.294,0.172
		c0.616-0.866,1.202-1.753,1.854-2.591c3.025-3.9,5.997-7.847,9.138-11.653c1.608-1.952,3.565-3.58,6.229-4.001
		c2.372-0.375,3.803,0.795,3.661,3.158c-0.188,3.092-1.472,5.737-3.762,7.811c-1.985,1.798-3.741,1.382-4.779-1.085
		c-0.505-1.196-1.267-1.407-2.168-0.668c-1.295,1.059-2.6,2.156-3.655,3.438c-5.167,6.29-9.461,13.136-12.693,20.621
		c-0.45,1.04-1.001,1.486-2.202,1.435C670.958,102.952,668.397,103.029,665.549,103.029z"/>
	<path fill-rule="evenodd" clip-rule="evenodd" fill="#FFFFFF" d="M350.529,102.585c1.36-2.901,2.607-5.562,3.854-8.222
		c2.744-5.851,5.493-11.699,8.222-17.555c0.394-0.849,0.793-1.713,1.027-2.613c0.464-1.773-0.179-2.573-2.047-2.738
		c-0.386-0.035-0.776-0.053-1.474-0.097c0.469-0.5,0.729-1.04,1.084-1.109c4.304-0.847,8.621-1.631,12.938-2.411
		c0.327-0.059,0.682,0.03,1.273,0.065c-3.053,6.238-6.045,12.358-9.039,18.478c0.074,0.049,0.15,0.099,0.223,0.147
		c0.409-0.567,0.801-1.145,1.226-1.695c3.283-4.263,6.437-8.635,9.926-12.719c1.417-1.658,3.415-3.052,5.428-3.917
		c3.084-1.323,5.094,0.517,4.506,3.812c-0.453,2.533-1.529,4.788-3.402,6.605c-2.158,2.092-3.887,1.794-5.11-0.863
		c-0.537-1.172-1.245-1.433-2.312-0.512c-1.523,1.316-3.015,2.719-4.266,4.288c-4.858,6.083-8.9,12.679-11.997,19.833
		c-0.415,0.962-0.946,1.279-1.979,1.249C356.011,102.534,353.402,102.585,350.529,102.585z"/>
	<path fill-rule="evenodd" clip-rule="evenodd" fill="#FFFFFF" d="M116.226,92.698c0.275,0.181,0.599,0.393,0.899,0.588
		c-0.027,0.165-0.012,0.282-0.063,0.346c-2.494,3.089-5.208,5.944-8.688,7.953c-1.96,1.13-4.05,1.794-6.355,1.614
		c-3.065-0.239-4.711-2.428-3.653-5.344c0.919-2.539,2.234-4.935,3.452-7.354c2.44-4.844,4.938-9.662,7.397-14.498
		c0.334-0.657,0.626-1.343,0.868-2.037c0.668-1.913,0.024-2.838-1.979-2.893c-0.389-0.011-0.778-0.002-1.245-0.002
		c0.154-1.155,0.687-1.619,1.817-1.768c4.011-0.526,8.004-1.192,12.011-1.755c0.814-0.115,1.658-0.016,2.736-0.016
		c-1.083,2.145-2.105,4.185-3.14,6.221c-3.603,7.074-7.213,14.149-10.816,21.225c-0.223,0.439-0.507,0.88-0.586,1.35
		c-0.087,0.526,0.026,1.085,0.051,1.631c0.553-0.075,1.268,0.046,1.632-0.253C112.453,96.134,114.257,94.458,116.226,92.698z"/>
	<path fill-rule="evenodd" clip-rule="evenodd" fill="#FFFFFF" d="M488.067,90.149c-9.394,11.612-18.381,16.471-31.543,14.524
		c-9.787-1.445-15.35-9.358-13.773-19.144c1.779-11.051,7.791-19.509,16.536-26.1c7.218-5.441,15.332-8.895,24.428-9.793
		c3.601-0.356,7.116,0.094,10.518,1.217c2.521,0.831,4.679,0.841,6.923-0.932c0.869-0.685,2.53-0.37,4.117-0.54
		c-0.31,0.802-0.483,1.334-0.712,1.844c-2.272,5.038-4.624,10.038-6.789,15.12c-0.651,1.529-1.47,2.177-3.075,1.89
		c-0.523-0.092-1.069-0.066-1.507-0.087c0.142-2.019,0.436-3.939,0.379-5.851c-0.132-4.44-2.779-7.009-7.222-7.159
		c-2.896-0.098-5.65,0.678-8.027,2.221c-2.713,1.762-5.487,3.608-7.703,5.928c-6.416,6.704-11.066,14.491-13.018,23.692
		c-0.266,1.245-0.426,2.547-0.393,3.817c0.109,4.359,2.756,7.021,7.115,7.372c4.391,0.354,8.449-0.675,12.129-3.021
		c1.91-1.217,3.717-2.614,5.447-4.078c0.936-0.79,1.835-1.233,3.056-1.102C485.958,90.076,486.975,90.089,488.067,90.149z
		 M485.101,91.564c-0.06-0.158-0.118-0.315-0.179-0.473c-0.694,0.34-1.453,0.591-2.072,1.034c-1.482,1.063-2.861,2.276-4.355,3.319
		c-4,2.795-8.426,4.265-13.346,4.125c-5.022-0.144-8.365-2.646-9.068-7.044c-0.244-1.532-0.238-3.185,0.05-4.708
		c2.165-11.393,7.946-20.757,16.585-28.326c3.916-3.431,8.451-5.81,13.951-5.617c4.705,0.167,7.92,3.166,8.162,7.849
		c0.089,1.7,0.016,3.411,0.016,5.121c0.914,0.377,1.285-0.181,1.623-0.939c1.281-2.883,2.599-5.753,3.898-8.627
		c0.925-2.057,1.841-4.115,2.901-6.49c-0.8,0.197-1.411,0.174-1.765,0.466c-2.284,1.911-4.711,1.644-7.398,0.973
		c-2.846-0.71-5.827-1.371-8.727-1.284c-9.607,0.292-18.035,4.09-25.588,9.785c-7.59,5.719-12.962,13.086-15.258,22.452
		c-1.139,4.645-1.18,9.235,1.455,13.458c3.229,5.174,8.298,6.837,14.037,7.134C470.642,104.328,478.506,99.251,485.101,91.564z"/>
	<path fill-rule="evenodd" clip-rule="evenodd" fill="#FFFFFF" d="M615.536,67.014c-1.491,2.932-2.871,5.645-4.255,8.36
		c0.074,0.076,0.149,0.156,0.222,0.234c0.407-0.34,0.823-0.667,1.219-1.022c3.028-2.703,6.06-5.434,9.98-6.777
		c1.464-0.501,3.075-0.793,4.618-0.788c2.664,0.009,4.86,2.136,4.584,4.77c-0.239,2.294-0.944,4.648-1.946,6.732
		c-2.457,5.114-5.204,10.085-7.833,15.116c-0.307,0.591-0.595,1.194-0.653,1.959c1.241-1.307,2.483-2.611,3.809-4.003
		c1.085,0.719,2.143,1.418,3.388,2.242c-4.031,4.644-7.829,9.415-14.296,10.608c-1.039,0.191-2.177,0.135-3.226-0.049
		c-3.055-0.544-4.615-2.933-3.645-5.896c0.745-2.282,1.844-4.464,2.924-6.618c2.388-4.765,4.866-9.485,7.303-14.225
		c0.13-0.257,0.234-0.526,0.526-1.188c-0.884,0.508-1.506,0.765-2.007,1.169c-6.167,4.972-11.561,10.619-15.236,17.729
		c-1.337,2.588-2.577,5.223-3.934,7.797c-0.224,0.422-0.829,0.902-1.267,0.912c-3.757,0.067-7.513,0.032-11.271,0.023
		c-0.128,0-0.257-0.082-0.537-0.176c5.169-10.13,10.311-20.208,15.641-30.657c-1.869-0.119-3.203-0.204-4.76-0.303
		c0.624-1.236,1.147-2.327,1.73-3.387c0.119-0.216,0.457-0.409,0.718-0.444c5.618-0.744,11.24-1.47,16.862-2.184
		C614.57,66.901,614.961,66.982,615.536,67.014z M613.409,68.228c-0.831,0-1.366-0.069-1.882,0.007
		c-4.437,0.678-8.877,1.355-13.3,2.117c-0.438,0.076-0.779,0.726-1.395,1.339c0.816,0.053,1.158,0.064,1.5,0.101
		c2.027,0.214,2.516,0.942,1.864,2.859c-0.284,0.838-0.606,1.674-1.008,2.462c-3.062,6.026-6.145,12.038-9.22,18.056
		c-1.271,2.485-2.542,4.969-3.92,7.665c2.877,0,5.482-0.076,8.08,0.032c1.284,0.053,1.899-0.397,2.452-1.539
		c2.662-5.503,5.198-11.069,9.419-15.664c3.279-3.571,6.432-7.262,10.624-9.804c0.776-0.473,1.906-0.36,2.873-0.518
		c-0.152,0.913-0.096,1.926-0.488,2.719c-2.103,4.244-4.351,8.414-6.481,12.643c-1.306,2.597-2.651,5.192-3.693,7.898
		c-0.935,2.439,0.448,4.44,3.019,4.566c1.348,0.067,2.795-0.048,4.067-0.476c4.53-1.529,7.602-4.963,10.723-8.509
		c-0.436-0.312-0.773-0.556-1.167-0.838c-1.199,1.211-2.262,2.464-3.513,3.486c-0.728,0.592-1.755,0.811-2.646,1.197
		c0.152-0.914,0.093-1.938,0.493-2.728c2.697-5.325,5.536-10.576,8.23-15.902c0.996-1.97,1.947-4.018,2.503-6.14
		c0.831-3.177-1.502-5.576-4.695-4.897c-1.805,0.384-3.63,1.017-5.239,1.91c-3.919,2.179-7.132,5.276-10.197,8.514
		c-1.497,1.585-2.986,3.183-4.479,4.774c-0.08-0.059-0.161-0.115-0.241-0.172C608.22,78.414,610.753,73.442,613.409,68.228z"/>
	<path fill-rule="evenodd" clip-rule="evenodd" fill="#FFFFFF" d="M502.551,96.88c1.561-1.681,3.121-3.36,4.754-5.123
		c1.271,0.607,2.453,1.174,3.865,1.849c-4.215,4.568-7.951,9.549-14.297,11.099c-1.556,0.379-3.377,0.262-4.942-0.142
		c-2.607-0.675-4.026-3.28-3.102-5.819c1.042-2.859,2.433-5.603,3.817-8.318c5.379-10.548,10.822-21.059,16.233-31.589
		c0.423-0.823,0.776-1.683,1.329-2.896c-1.664-0.103-3.043-0.186-4.645-0.284c0.586-1.158,1.128-2.281,1.725-3.371
		c0.121-0.216,0.441-0.42,0.693-0.454c5.904-0.79,11.697-2.481,17.729-2.283c0.096,0.003,0.188,0.048,0.497,0.131
		c-8.073,15.631-16.122,31.222-24.169,46.813C502.211,96.623,502.381,96.752,502.551,96.88z M509.146,94.451
		c-1.034-1.121-1.58-1.025-2.153-0.262c-0.441,0.588-0.968,1.128-1.523,1.612c-1.075,0.937-2.154,1.888-3.334,2.682
		c-0.386,0.262-1.176,0.23-1.606,0.002c-0.227-0.119-0.206-0.992-0.063-1.454c0.24-0.795,0.629-1.553,1.014-2.299
		c7.182-13.945,14.377-27.887,21.566-41.828c0.307-0.595,0.597-1.198,0.945-1.897c-0.46-0.041-0.71-0.11-0.945-0.076
		c-4.731,0.687-9.466,1.367-14.188,2.125c-0.4,0.062-0.715,0.664-1.201,1.147c4.171,0.896,4.423,1.238,2.734,4.566
		c-4.73,9.329-9.561,18.607-14.329,27.915c-1.911,3.73-3.896,7.433-5.61,11.253c-1.457,3.254,0.265,5.675,3.854,5.782
		c2.251,0.067,4.382-0.539,6.115-1.894C503.4,99.498,506.209,96.952,509.146,94.451z"/>
	<path fill-rule="evenodd" clip-rule="evenodd" fill="#FFFFFF" d="M579.596,69.535c0.482-1.651,1.68-1.642,2.957-1.689
		c3.294-0.126,6.583-0.358,10.14-0.562c-5.041,9.823-9.982,19.454-14.926,29.084c0.122,0.104,0.248,0.209,0.372,0.313
		c1.126-1.091,2.325-2.12,3.358-3.294c0.799-0.909,1.48-1.12,2.474-0.344c0.565,0.439,1.253,0.721,1.995,1.139
		c-3.423,4.451-6.933,8.6-12.424,10.268c-1.571,0.478-3.309,0.645-4.954,0.584c-2.769-0.101-4.148-1.764-4.127-4.538
		c0.001-0.328,0-0.654,0-1.178c-1.275,1.036-2.381,1.993-3.545,2.871c-1.868,1.414-3.875,2.54-6.269,2.822
		c-4.685,0.553-7.56-1.713-7.562-6.421c-0.002-2.416,0.307-5,1.192-7.225c3.78-9.501,9.905-17.166,18.917-22.217
		c1.97-1.104,4.301-1.688,6.54-2.158C576.048,66.508,578.149,67.191,579.596,69.535z M569.61,92.873
		c-0.109-0.135-0.218-0.268-0.327-0.4c-0.4,0.774-0.833,1.534-1.194,2.326c-0.758,1.654-1.606,3.286-2.188,5.004
		c-0.686,2.023,0.448,3.642,2.565,3.943c0.532,0.076,1.089,0.092,1.624,0.048c6.232-0.53,10.104-4.6,13.837-9.14
		c-0.446-0.27-0.767-0.46-0.946-0.569c-1.635,1.382-3.131,2.742-4.745,3.945c-0.46,0.344-1.267,0.223-1.914,0.313
		c0.012-0.643,0.007-1.29,0.048-1.933c0.011-0.181,0.161-0.354,0.251-0.529c3.374-6.639,6.751-13.279,10.127-19.918
		c1.195-2.349,2.395-4.694,3.688-7.23c-2.937,0.161-5.599,0.268-8.247,0.487c-0.475,0.042-1.062,0.475-1.325,0.895
		c-0.669,1.061-1.185,2.219-1.761,3.339c-0.281-0.395-0.296-0.712-0.313-1.031c-0.194-3.16-1.789-4.669-4.933-4.159
		c-2.005,0.324-4.046,1-5.84,1.956c-7.015,3.721-12.036,9.479-15.996,16.248c-1.91,3.268-3.532,6.674-3.706,10.509
		c-0.26,5.835,2.774,8.157,8.184,6.14c2.063-0.769,3.905-2.282,5.657-3.693C564.732,97.351,567.134,95.064,569.61,92.873z"/>
	<path fill-rule="evenodd" clip-rule="evenodd" fill="#FFFFFF" d="M542.439,91.642c0.764,0.816,1.559,1.67,2.434,2.607
		c-6.828,6.674-14.211,11.651-24.263,10.718c-6.229-0.576-9.537-5.018-8.16-11.267c1.496-6.816,5.32-12.276,10.365-16.891
		c6.044-5.535,13.033-9.218,21.35-9.889c1.452-0.117,2.987-0.048,4.399,0.289c3.108,0.737,4.586,3.307,3.907,6.423
		c-0.917,4.223-3.725,7.135-6.956,9.646c-5.225,4.06-11.308,5.944-17.824,6.507c-1.025,0.09-1.528,0.418-1.705,1.387
		c-0.188,1.017-0.54,2.017-0.604,3.036c-0.118,1.929,1.044,3.178,2.975,3.352c2.386,0.218,4.646-0.317,6.704-1.46
		C537.511,94.742,539.867,93.206,542.439,91.642z M542.873,94.318c-0.03-0.212-0.06-0.425-0.09-0.638
		c-0.485,0.061-1.053-0.018-1.44,0.209c-1.704,0.994-3.298,2.182-5.039,3.104c-2.742,1.445-5.646,2.398-8.817,1.761
		c-1.989-0.402-3.343-1.766-3.323-3.787c0.017-1.64,0.539-3.273,0.813-4.91c0.168-1.008,0.636-1.412,1.752-1.497
		c6.828-0.526,13.208-2.396,18.593-6.832c2.773-2.285,5.215-4.887,5.879-8.626c0.422-2.382-0.659-4.186-3.036-4.618
		c-1.715-0.313-3.557-0.368-5.282-0.12c-8.392,1.211-15.344,5.257-21.111,11.345c-3.99,4.216-7.065,9.01-8.127,14.859
		c-0.885,4.869,1.517,8.236,6.388,8.962c0.877,0.131,1.768,0.218,2.653,0.232C530.962,103.901,537.176,99.652,542.873,94.318z"/>
	<path fill-rule="evenodd" clip-rule="evenodd" fill="#FFFFFF" d="M514.639,146.433c-0.576,0.603-0.985,1.396-1.543,1.521
		c-0.635,0.144-1.637-0.092-2.068-0.549c-1.721-1.832-3.283-3.812-4.902-5.741c-7.455-8.888-14.906-17.778-22.359-26.668
		c-0.224-0.266-0.479-0.51-0.646-0.808c-0.523-0.917-0.521-1.832,0.345-2.524c0.86-0.686,1.791-0.588,2.524,0.209
		c1,1.087,1.929,2.246,2.88,3.381c8.151,9.721,16.303,19.441,24.442,29.171C513.769,144.974,514.108,145.62,514.639,146.433z"/>
	<path fill-rule="evenodd" clip-rule="evenodd" fill="#FFFFFF" d="M509.276,39.135c-0.631-0.473-1.414-0.767-1.596-1.277
		c-0.213-0.586-0.11-1.514,0.242-2.026c0.605-0.876,1.508-1.548,2.292-2.303c8.576-8.257,17.152-16.512,25.732-24.769
		c0.034-0.034,0.064-0.075,0.102-0.108c0.976-0.907,2.143-1.013,2.897-0.266c0.829,0.822,0.788,1.848-0.235,2.859
		c-2.283,2.257-4.602,4.479-6.915,6.706c-6.947,6.674-13.894,13.347-20.855,20.005C510.5,38.376,509.938,38.669,509.276,39.135z"/>
	<path fill-rule="evenodd" clip-rule="evenodd" fill="#FFFFFF" d="M438.014,15.604c0.764,0.575,1.439,0.963,1.955,1.502
		c5.264,5.493,10.504,11.012,15.75,16.524c1.736,1.825,3.482,3.64,5.213,5.473c1.073,1.136,1.176,2.14,0.346,2.985
		c-0.847,0.857-1.867,0.776-2.958-0.365c-7.177-7.496-14.353-14.988-21.461-22.546c-0.455-0.481-0.581-1.536-0.435-2.235
		C436.528,16.455,437.36,16.122,438.014,15.604z"/>
	<path fill-rule="evenodd" clip-rule="evenodd" fill="#FFFFFF" d="M444.128,111.243c-0.188,0.301-0.446,0.958-0.905,1.408
		c-6.724,6.595-13.477,13.166-20.229,19.73c-0.989,0.96-2.101,1.027-2.882,0.259c-0.873-0.86-0.781-1.933,0.283-2.971
		c6.635-6.474,13.273-12.946,19.92-19.411c0.351-0.34,0.715-0.698,1.139-0.928C442.651,108.678,444.07,109.521,444.128,111.243z"/>
	<path fill-rule="evenodd" clip-rule="evenodd" fill="#FFFFFF" d="M535.428,132.912c-0.642-0.545-1.437-0.894-1.554-1.397
		c-0.148-0.656,0.017-1.624,0.439-2.127c2.126-2.527,4.379-4.95,6.589-7.406c4.026-4.476,8.066-8.938,12.071-13.43
		c0.774-0.868,1.604-1.35,2.718-0.818c1.163,0.555,1.23,2.035,0.134,3.259c-3.853,4.301-7.724,8.583-11.589,12.875
		c-2.31,2.565-4.605,5.147-6.949,7.683C536.821,132.057,536.162,132.385,535.428,132.912z"/>
	<path fill-rule="evenodd" clip-rule="evenodd" fill="#FFFFFF" d="M649.014,30.4c-0.392,0.746-0.588,1.309-0.936,1.757
		c-5.336,6.911-10.686,13.812-16.042,20.708c-0.851,1.095-1.906,1.32-2.818,0.661c-0.878-0.633-0.991-1.817-0.177-2.875
		c5.396-6.991,10.785-13.984,16.262-20.912c0.433-0.549,1.517-0.847,2.261-0.787C648.069,28.994,648.507,29.86,649.014,30.4z"/>
	<path fill-rule="evenodd" clip-rule="evenodd" fill="#FFFFFF" d="M124.699,50.237c3.269,0.016,5.282,2.611,4.475,5.769
		c-0.729,2.852-3.431,5.101-6.389,5.315c-3.582,0.259-5.875-2.604-4.85-6.056C118.792,52.384,121.696,50.225,124.699,50.237z"/>
	<path fill-rule="evenodd" clip-rule="evenodd" fill="#FFFFFF" d="M644.165,124.037c-0.466,0.496-0.87,1.297-1.426,1.422
		c-0.629,0.142-1.61-0.109-2.059-0.563c-0.962-0.973-1.677-2.185-2.492-3.301c-3.252-4.465-6.504-8.931-9.756-13.396
		c-0.204-0.278-0.411-0.554-0.603-0.841c-0.675-1.022-0.646-2.012,0.39-2.719c0.946-0.65,1.91-0.445,2.597,0.494
		c4.246,5.813,8.483,11.639,12.704,17.472C643.768,122.947,643.879,123.39,644.165,124.037z"/>
	<path fill-rule="evenodd" clip-rule="evenodd" fill="#FFFFFF" d="M576.684,37.975c-0.389,0.71-0.584,1.213-0.901,1.624
		c-4.099,5.321-8.219,10.624-12.317,15.943c-0.784,1.019-1.693,1.365-2.813,0.645c-0.914-0.59-0.995-1.8-0.17-2.875
		c4.155-5.399,8.306-10.807,12.559-16.133c0.421-0.53,1.535-0.781,2.273-0.693C575.815,36.548,576.217,37.431,576.684,37.975z"/>
	<path fill-rule="evenodd" clip-rule="evenodd" fill="#FFFFFF" d="M577.386,73.582c-0.901,2.599-1.554,5.249-2.708,7.657
		c-2.475,5.158-5.831,9.731-10.099,13.575c-0.866,0.777-1.883,1.466-2.949,1.918c-1.778,0.756-3.015-0.12-2.832-2.026
		c0.14-1.455,0.461-2.937,0.973-4.303c2.43-6.5,6.145-12.232,10.751-17.392c0.646-0.726,1.414-1.486,2.287-1.835
		c0.967-0.388,2.272-0.703,3.141-0.344C576.625,71.113,576.851,72.475,577.386,73.582z M560.093,95.518
		c0.159,0.106,0.322,0.212,0.485,0.319c0.825-0.482,1.761-0.841,2.46-1.465c5.174-4.595,9.156-10.054,11.643-16.533
		c0.505-1.318,0.733-2.759,0.942-4.164c0.085-0.574-0.223-1.206-0.353-1.814c-0.595,0.135-1.304,0.106-1.764,0.431
		c-0.96,0.675-1.97,1.406-2.64,2.341c-2.549,3.562-5.174,7.101-7.372,10.879c-1.441,2.476-2.229,5.337-3.234,8.054
		C560.042,94.157,560.139,94.866,560.093,95.518z"/>
	<path fill-rule="evenodd" clip-rule="evenodd" fill="#FFFFFF" d="M526.167,86.798c2.836-5.346,5.849-10.192,10.289-13.97
		c0.927-0.79,1.983-1.53,3.106-1.947c0.768-0.281,1.998-0.26,2.567,0.193c0.467,0.368,0.575,1.702,0.304,2.402
		c-2.597,6.754-6.943,11.649-14.407,13.061C527.5,86.638,526.965,86.686,526.167,86.798z M528.607,84.961
		c5.817-0.992,13.399-9.119,12.441-13.387C535.093,74.34,532.043,79.598,528.607,84.961z"/>
</g>
</svg>
