<?xml version="1.0" encoding="utf-8"?>
<!-- Generator: Adobe Illustrator 16.0.0, SVG Export Plug-In . SVG Version: 6.00 Build 0)  -->
<!DOCTYPE svg PUBLIC "-//W3C//DTD SVG 1.1//EN" "http://www.w3.org/Graphics/SVG/1.1/DTD/svg11.dtd">
<svg version="1.1" id="Layer_1" xmlns="http://www.w3.org/2000/svg" xmlns:xlink="http://www.w3.org/1999/xlink" x="0px" y="0px"
	 width="175.349px" height="167.907px" viewBox="0 0 175.349 167.907" enable-background="new 0 0 175.349 167.907"
	 xml:space="preserve">
<circle fill="#011F4B" cx="88" cy="84" r="75"/>
<g>
	<g>
		<path fill="#FCFCFC" d="M112.495,27.365h-48.99c-3.25,0-5.895,2.547-5.895,5.677v101.921c0,3.126,2.643,5.673,5.895,5.673h48.99
			c3.252,0,5.895-2.547,5.895-5.673V33.04C118.39,29.91,115.747,27.365,112.495,27.365z M79.448,36.187h17.104v1.199H79.448V36.187z
			 M88.001,134.694c-1.819,0-3.297-1.478-3.297-3.296c0-1.814,1.478-3.29,3.297-3.29c1.818,0,3.296,1.479,3.296,3.29
			C91.297,133.216,89.819,134.694,88.001,134.694z M114.366,122.359H61.642V44.215h52.725V122.359z"/>
	</g>
</g>
</svg>
